<svg width="122" height="50" viewBox="0 0 122 50" fill="none" xmlns="http://www.w3.org/2000/svg">
<path d="M31.91 45.577V26.6839C31.91 18.5114 27.2628 13.1455 19.2543 13.1455C13.7273 13.1455 10.4336 16.0305 8.14386 19.3085V17.5685C8.14386 15.2896 6.32785 13.4823 4.03809 13.4823C1.74834 13.4823 0 15.2896 0 17.5685V45.577C0 47.8559 1.81602 49.5959 4.03809 49.5959C6.26017 49.5959 8.14386 47.8559 8.14386 45.577V29.2883C8.14386 23.7876 11.4375 20.5097 16.1524 20.5097C20.8672 20.5097 23.7661 23.6529 23.7661 29.1536V45.577C23.7661 47.8559 25.5821 49.5959 27.8718 49.5959C30.1616 49.5959 31.91 47.8559 31.91 45.577ZM66.1886 31.6345C66.1886 38.6057 61.6091 42.9614 56.0257 42.9614C50.4423 42.9614 45.6598 38.4037 45.6598 31.6345V31.4998C45.6598 24.7306 50.51 20.1729 56.0257 20.1729C61.5414 20.1729 66.1886 24.6632 66.1886 31.4998V31.6345ZM74.4678 31.6345V31.4998C74.4678 19.7014 66.324 13.1343 57.9771 13.1343C52.1794 13.1343 48.4797 16.0867 45.8515 19.7687V4.03008C45.8515 1.75123 44.0355 0 41.7458 0C39.456 0 37.7076 1.74001 37.7076 4.03008V45.577C37.7076 47.7885 39.5237 49.5959 41.7458 49.5959C43.9678 49.5959 45.8515 47.7885 45.8515 45.577V43.7696C48.3443 47.0588 52.044 50 57.9771 50C66.3916 50 74.4678 43.3655 74.4678 31.6345ZM110.766 26.6727C110.766 18.5002 106.118 13.1343 98.1098 13.1343C92.5828 13.1343 89.2892 16.0193 86.9994 19.2973V17.5573C86.9994 15.2784 85.1834 13.471 82.8937 13.471C80.6039 13.471 78.8556 15.2784 78.8556 17.5573V45.5658C78.8556 47.8446 80.6716 49.5846 82.8937 49.5846C85.1157 49.5846 86.9994 47.8446 86.9994 45.5658V29.2771C86.9994 23.7764 90.3043 20.4984 95.0192 20.4984C99.7341 20.4984 102.622 23.6417 102.622 29.1423V45.5658C102.622 47.8446 104.438 49.5846 106.727 49.5846C109.017 49.5846 110.766 47.8446 110.766 45.5658V26.6727ZM117.353 7.4652C117.353 8.17243 116.778 8.63269 115.909 8.63269H114.127V6.29771H115.909C116.811 6.29771 117.353 6.71307 117.353 7.45397V7.47643V7.4652ZM118.515 7.40907V7.38662C118.515 6.80287 118.323 6.28648 117.962 5.93848C117.522 5.5119 116.845 5.2537 115.999 5.2537H113.552C113.236 5.2537 112.976 5.50067 112.976 5.82622V11.5065C112.976 11.8208 113.224 12.079 113.552 12.079C113.879 12.079 114.127 11.8208 114.127 11.5065V9.63179H115.683L117.364 11.7759C117.499 11.9555 117.669 12.079 117.928 12.079C118.21 12.079 118.481 11.8545 118.481 11.5402C118.481 11.3606 118.402 11.2483 118.289 11.1024L116.935 9.40727C117.883 9.13785 118.515 8.48675 118.515 7.39784M121.323 8.80108C121.323 11.978 118.819 14.5824 115.526 14.5824C112.232 14.5824 109.762 12.0117 109.762 8.83475V8.80108C109.762 5.62416 112.254 3.01976 115.559 3.01976C118.864 3.01976 121.323 5.59048 121.323 8.7674V8.80108ZM122 8.80108V8.7674C122 5.27616 119.18 2.37988 115.559 2.37988C111.939 2.37988 109.085 5.30983 109.085 8.80108V8.83475C109.085 12.326 111.905 15.2223 115.526 15.2223C119.146 15.2223 122 12.2923 122 8.80108Z" fill="white"/>
</svg>
