<svg width="102" height="101" viewBox="0 0 102 101" fill="none" xmlns="http://www.w3.org/2000/svg">
<g clip-path="url(#clip0_211_1514)">
<path d="M72.2498 47.2098C72.1098 48.0398 72.3598 48.8398 72.8598 49.4398C72.1298 49.7098 71.5098 50.2698 71.2198 51.0598C70.9298 51.8498 71.0398 52.6798 71.4298 53.3598C70.6598 53.4998 69.9498 53.9498 69.5398 54.6698C69.1198 55.3998 69.0798 56.2398 69.3498 56.9698C68.5698 56.9698 67.7998 57.2898 67.2598 57.9398C66.7198 58.5798 66.5398 59.3998 66.6798 60.1698C65.9098 60.0398 65.0898 60.2198 64.4498 60.7598C63.8098 61.2998 63.4898 62.0798 63.4898 62.8598C62.7598 62.5898 61.9198 62.6298 61.1898 63.0498C60.4598 63.4698 60.0098 64.1798 59.8698 64.9498C59.1998 64.5598 58.3598 64.4498 57.5798 64.7398C56.7898 65.0298 56.2298 65.6498 55.9598 66.3798C55.3598 65.8798 54.5598 65.6198 53.7298 65.7798C52.8998 65.9198 52.2398 66.4298 51.8398 67.1098C51.3398 66.5198 50.5998 66.1298 49.7598 66.1298C48.9198 66.1298 48.1798 66.5198 47.6798 67.1098C47.2798 66.4398 46.6198 65.9298 45.7898 65.7898C44.9598 65.6398 44.1598 65.8898 43.5698 66.3898C43.2998 65.6598 42.7398 65.0398 41.9398 64.7498C41.1498 64.4598 40.3198 64.5698 39.6398 64.9598C39.4998 64.1898 39.0498 63.4898 38.3298 63.0698C37.5998 62.6498 36.7598 62.6098 36.0298 62.8798C36.0298 62.0998 35.7098 61.3298 35.0598 60.7898C34.4098 60.2498 33.5998 60.0698 32.8298 60.1998C32.9698 59.4298 32.7898 58.6098 32.2398 57.9698C31.6998 57.3298 30.9298 57.0098 30.1498 56.9998C30.4098 56.2698 30.3798 55.4298 29.9598 54.6998C29.5398 53.9698 28.8398 53.5198 28.0698 53.3798C28.4598 52.6998 28.5698 51.8798 28.2798 51.0898C27.9998 50.2998 27.3798 49.7398 26.6498 49.4698C27.1498 48.8698 27.3998 48.0698 27.2498 47.2398C27.0998 46.4098 26.5998 45.7498 25.9198 45.3598C26.5198 44.8498 26.8998 44.1098 26.8998 43.2698C26.8998 42.4298 26.5198 41.6898 25.9198 41.1798C26.5998 40.7898 27.1098 40.1198 27.2498 39.2998C27.3898 38.4698 27.1398 37.6698 26.6398 37.0698C27.3698 36.7998 27.9898 36.2398 28.2798 35.4498C28.5698 34.6598 28.4598 33.8298 28.0698 33.1498C28.8398 33.0198 29.5398 32.5598 29.9598 31.8398C30.3798 31.1098 30.4198 30.2698 30.1498 29.5398C30.9298 29.5398 31.6998 29.2198 32.2398 28.5798C32.7798 27.9398 32.9598 27.1198 32.8198 26.3498C33.5898 26.4798 34.4098 26.2998 35.0498 25.7598C35.6998 25.2198 36.0098 24.4498 36.0198 23.6598C36.7498 23.9198 37.5898 23.8898 38.3198 23.4698C39.0498 23.0498 39.4898 22.3498 39.6398 21.5798C40.3098 21.9698 41.1498 22.0798 41.9298 21.7898C42.7198 21.4998 43.2898 20.8898 43.5498 20.1498C44.1498 20.6498 44.9498 20.8998 45.7698 20.7598C46.5998 20.6098 47.2598 20.0998 47.6598 19.4298C48.1598 20.0298 48.9098 20.4098 49.7498 20.4098C50.5898 20.4098 51.3298 20.0198 51.8298 19.4298C52.2298 20.0998 52.8898 20.6098 53.7198 20.7598C54.5498 20.8998 55.3498 20.6498 55.9498 20.1498C56.2198 20.8798 56.7798 21.4998 57.5698 21.7898C58.3598 22.0698 59.1898 21.9698 59.8598 21.5798C59.9998 22.3498 60.4498 23.0498 61.1798 23.4698C61.9098 23.8898 62.7498 23.9298 63.4798 23.6598C63.4798 24.4398 63.7998 25.2098 64.4398 25.7598C65.0898 26.2998 65.8998 26.4798 66.6698 26.3498C66.5298 27.1198 66.7098 27.9298 67.2498 28.5798C67.7898 29.2198 68.5698 29.5398 69.3398 29.5398C69.0698 30.2698 69.1098 31.1098 69.5298 31.8398C69.9498 32.5698 70.6598 33.0198 71.4198 33.1498C71.0298 33.8298 70.9198 34.6498 71.2098 35.4498C71.4998 36.2398 72.1198 36.8098 72.8498 37.0798C72.3498 37.6798 72.0998 38.4698 72.2398 39.3098C72.3898 40.1398 72.8998 40.7998 73.5698 41.1898C72.9798 41.6898 72.5898 42.4398 72.5898 43.2798C72.5898 44.1198 72.9798 44.8598 73.5798 45.3698C72.9098 45.7598 72.3998 46.4198 72.2498 47.2498M76.9798 45.6198C77.8198 45.1598 78.3898 44.2698 78.3898 43.2398C78.3898 42.2098 77.8198 41.3198 76.9798 40.8498C77.7198 40.2398 78.1398 39.2698 77.9498 38.2598C77.7698 37.2498 77.0498 36.4698 76.1398 36.1598C76.7698 35.4298 77.0098 34.4098 76.6598 33.4398C76.3098 32.4698 75.4598 31.8298 74.5198 31.6798C75.0098 30.8598 75.0698 29.7998 74.5498 28.9098C74.0398 28.0198 73.0998 27.5398 72.1398 27.5498C72.4798 26.6498 72.3598 25.5998 71.6898 24.8198C71.0298 24.0298 70.0198 23.7198 69.0798 23.8998C69.2698 22.9598 68.9498 21.9498 68.1698 21.2898C67.3798 20.6298 66.3298 20.4998 65.4298 20.8398C65.4498 19.8798 64.9698 18.9398 64.0698 18.4298C63.1798 17.9098 62.1298 17.9698 61.2998 18.4598C61.1498 17.5098 60.5098 16.6698 59.5498 16.3198C58.5798 15.9698 57.5498 16.1998 56.8298 16.8298C56.5098 15.9198 55.7398 15.1998 54.7298 15.0298C53.7198 14.8498 52.7398 15.2598 52.1298 15.9998C51.6598 15.1698 50.7798 14.5898 49.7498 14.5898C48.7198 14.5898 47.8298 15.1598 47.3598 15.9998C46.7498 15.2498 45.7798 14.8398 44.7698 15.0198C43.7598 15.1998 42.9798 15.9198 42.6698 16.8198C41.9398 16.1898 40.9098 15.9598 39.9498 16.3098C38.9798 16.6598 38.3498 17.5098 38.1898 18.4498C37.3598 17.9598 36.3098 17.9098 35.4198 18.4198C34.5298 18.9298 34.0498 19.8698 34.0598 20.8398C33.1598 20.4998 32.1098 20.6298 31.3198 21.2898C30.5298 21.9498 30.2298 22.9598 30.4098 23.9098C29.4698 23.7298 28.4598 24.0398 27.7998 24.8298C27.1298 25.6198 27.0098 26.6598 27.3498 27.5598C26.3898 27.5498 25.4498 28.0198 24.9298 28.9198C24.4198 29.8098 24.4698 30.8698 24.9698 31.6898C24.0198 31.8398 23.1798 32.4798 22.8198 33.4498C22.4698 34.4198 22.7098 35.4398 23.3298 36.1698C22.4198 36.4898 21.6998 37.2598 21.5198 38.2698C21.3398 39.2798 21.7598 40.2598 22.4998 40.8598C21.6598 41.3298 21.0898 42.2098 21.0898 43.2398C21.0898 44.2698 21.6698 45.1498 22.4998 45.6198C21.7598 46.2298 21.3398 47.1998 21.5198 48.2098C21.6998 49.2198 22.4198 49.9898 23.3298 50.3098C22.6998 51.0398 22.4598 52.0698 22.8198 53.0298C23.1698 53.9998 24.0098 54.6298 24.9598 54.7898C24.4698 55.6198 24.4098 56.6698 24.9198 57.5598C25.4398 58.4498 26.3798 58.9298 27.3398 58.9198C26.9998 59.8198 27.1298 60.8698 27.7898 61.6498C28.4498 62.4398 29.4598 62.7498 30.3998 62.5698C30.2098 63.5098 30.5298 64.5198 31.3098 65.1798C32.0998 65.8398 33.1498 65.9698 34.0498 65.6298C34.0298 66.5898 34.5198 67.5298 35.4098 68.0398C36.2998 68.5598 37.3598 68.4998 38.1798 68.0098C38.3398 68.9598 38.9698 69.7998 39.9398 70.1498C40.9098 70.4998 41.9298 70.2698 42.6598 69.6398C42.9798 70.5498 43.7498 71.2698 44.7598 71.4498C45.7698 71.6298 46.7398 71.2198 47.3498 70.4698C47.8198 71.3098 48.6998 71.8798 49.7398 71.8798C50.7798 71.8798 51.6598 71.3098 52.1198 70.4698C52.7298 71.2198 53.6998 71.6298 54.7098 71.4498C55.7198 71.2698 56.4998 70.5498 56.8098 69.6398C57.5398 70.2698 58.5598 70.4998 59.5298 70.1498C60.4998 69.7998 61.1398 68.9498 61.2898 68.0098C62.1198 68.4998 63.1698 68.5598 64.0598 68.0398C64.9498 67.5298 65.4398 66.5898 65.4198 65.6298C66.3198 65.9698 67.3698 65.8398 68.1498 65.1798C68.9398 64.5198 69.2498 63.5098 69.0698 62.5698C70.0198 62.7498 71.0198 62.4398 71.6798 61.6498C72.3398 60.8598 72.4698 59.8098 72.1298 58.9098C73.0898 58.9198 74.0298 58.4498 74.5398 57.5498C75.0598 56.6598 74.9998 55.5998 74.5098 54.7798C75.4598 54.6298 76.2998 53.9898 76.6498 53.0198C76.9998 52.0498 76.7598 51.0298 76.1298 50.2998C77.0398 49.9898 77.7598 49.2098 77.9398 48.1998C78.1198 47.1898 77.7098 46.2098 76.9698 45.5998" fill="white"/>
<path d="M31.2202 68.5998C31.2202 70.1398 29.9802 71.3798 28.4402 71.3798C26.9002 71.3798 25.6602 70.1398 25.6602 68.5998C25.6602 67.0598 26.9002 65.8198 28.4402 65.8198C29.9802 65.8198 31.2202 67.0598 31.2202 68.5998Z" fill="white"/>
<path d="M27.1498 64.53C27.1498 66.07 25.9098 67.31 24.3698 67.31C22.8298 67.31 21.5898 66.07 21.5898 64.53C21.5898 62.99 22.8298 61.75 24.3698 61.75C25.9098 61.75 27.1498 62.99 27.1498 64.53Z" fill="white"/>
<path d="M23.83 59.7898C23.83 61.3198 22.59 62.5698 21.05 62.5698C19.51 62.5698 18.27 61.3298 18.27 59.7898C18.27 58.2498 19.52 57.0098 21.05 57.0098C22.58 57.0098 23.83 58.2598 23.83 59.7898Z" fill="white"/>
<path d="M21.3901 54.5598C21.3901 56.0998 20.1401 57.3398 18.6101 57.3398C17.0801 57.3398 15.8301 56.0998 15.8301 54.5598C15.8301 53.0198 17.0801 51.7798 18.6101 51.7798C20.1401 51.7798 21.3901 53.0198 21.3901 54.5598Z" fill="white"/>
<path d="M19.8998 48.99C19.8998 50.53 18.6598 51.77 17.1198 51.77C15.5798 51.77 14.3398 50.52 14.3398 48.99C14.3398 47.46 15.5898 46.21 17.1198 46.21C18.6498 46.21 19.8998 47.45 19.8998 48.99Z" fill="white"/>
<path d="M19.3901 43.24C19.3901 44.78 18.1501 46.02 16.6101 46.02C15.0701 46.02 13.8301 44.78 13.8301 43.24C13.8301 41.7 15.0701 40.46 16.6101 40.46C18.1501 40.46 19.3901 41.7 19.3901 43.24Z" fill="white"/>
<path d="M19.8998 37.49C19.8998 39.03 18.6598 40.27 17.1198 40.27C15.5798 40.27 14.3398 39.03 14.3398 37.49C14.3398 35.95 15.5898 34.71 17.1198 34.71C18.6498 34.71 19.8998 35.95 19.8998 37.49Z" fill="white"/>
<path d="M21.3901 31.9099C21.3901 33.4499 20.1401 34.6899 18.6101 34.6899C17.0801 34.6899 15.8301 33.4499 15.8301 31.9099C15.8301 30.3699 17.0801 29.1299 18.6101 29.1299C20.1401 29.1299 21.3901 30.3699 21.3901 31.9099Z" fill="white"/>
<path d="M23.83 26.6799C23.83 28.2199 22.59 29.4599 21.05 29.4599C19.51 29.4599 18.27 28.2199 18.27 26.6799C18.27 25.1399 19.52 23.8999 21.05 23.8999C22.58 23.8999 23.83 25.1399 23.83 26.6799Z" fill="white"/>
<path d="M27.1498 21.9499C27.1498 23.4899 25.9098 24.7299 24.3698 24.7299C22.8298 24.7299 21.5898 23.4899 21.5898 21.9499C21.5898 20.4099 22.8298 19.1699 24.3698 19.1699C25.9098 19.1699 27.1498 20.4099 27.1498 21.9499Z" fill="white"/>
<path d="M52.52 10.1198C52.52 11.6598 51.28 12.8998 49.74 12.8998C48.2 12.8998 46.96 11.6598 46.96 10.1198C46.96 8.57984 48.2 7.33984 49.74 7.33984C51.28 7.33984 52.52 8.58984 52.52 10.1198Z" fill="white"/>
<path d="M58.27 10.6198C58.27 12.1598 57.03 13.3998 55.49 13.3998C53.95 13.3998 52.71 12.1598 52.71 10.6198C52.71 9.07984 53.95 7.83984 55.49 7.83984C57.03 7.83984 58.27 9.07984 58.27 10.6198Z" fill="white"/>
<path d="M73.81 17.8601C73.81 19.4001 72.57 20.6401 71.03 20.6401C69.49 20.6401 68.25 19.4001 68.25 17.8601C68.25 16.3201 69.49 15.0801 71.03 15.0801C72.57 15.0801 73.81 16.3201 73.81 17.8601Z" fill="white"/>
<path d="M77.8901 21.9499C77.8901 23.4899 76.6501 24.7299 75.1101 24.7299C73.5701 24.7299 72.3301 23.4899 72.3301 21.9499C72.3301 20.4099 73.5701 19.1699 75.1101 19.1699C76.6501 19.1699 77.8901 20.4099 77.8901 21.9499Z" fill="white"/>
<path d="M81.1699 26.6799C81.1699 28.2199 79.9299 29.4599 78.3899 29.4599C76.8499 29.4599 75.6099 28.2199 75.6099 26.6799C75.6099 25.1399 76.8499 23.8999 78.3899 23.8999C79.9299 23.8999 81.1699 25.1399 81.1699 26.6799Z" fill="white"/>
<path d="M83.6401 31.9099C83.6401 33.4499 82.3901 34.6899 80.8601 34.6899C79.3301 34.6899 78.0801 33.4499 78.0801 31.9099C78.0801 30.3699 79.3201 29.1299 80.8601 29.1299C82.4001 29.1299 83.6401 30.3699 83.6401 31.9099Z" fill="white"/>
<path d="M85.1401 37.49C85.1401 39.03 83.9001 40.27 82.3601 40.27C80.8201 40.27 79.5801 39.03 79.5801 37.49C79.5801 35.95 80.8301 34.71 82.3601 34.71C83.8901 34.71 85.1401 35.95 85.1401 37.49Z" fill="white"/>
<path d="M85.6401 43.24C85.6401 44.78 84.4001 46.02 82.8601 46.02C81.3201 46.02 80.0801 44.78 80.0801 43.24C80.0801 41.7 81.3201 40.46 82.8601 40.46C84.4001 40.46 85.6401 41.7 85.6401 43.24Z" fill="white"/>
<path d="M85.1401 48.99C85.1401 50.53 83.9001 51.77 82.3601 51.77C80.8201 51.77 79.5801 50.52 79.5801 48.99C79.5801 47.46 80.8301 46.21 82.3601 46.21C83.8901 46.21 85.1401 47.45 85.1401 48.99Z" fill="white"/>
<path d="M83.6401 54.5598C83.6401 56.0998 82.4001 57.3398 80.8601 57.3398C79.3201 57.3398 78.0801 56.0998 78.0801 54.5598C78.0801 53.0198 79.3201 51.7798 80.8601 51.7798C82.4001 51.7798 83.6401 53.0198 83.6401 54.5598Z" fill="white"/>
<path d="M81.2001 59.7898C81.2001 61.3198 79.9601 62.5698 78.4201 62.5698C76.8801 62.5698 75.6401 61.3298 75.6401 59.7898C75.6401 58.2498 76.8901 57.0098 78.4201 57.0098C79.9501 57.0098 81.2001 58.2598 81.2001 59.7898Z" fill="white"/>
<path d="M77.8901 64.5202C77.8901 66.0502 76.6501 67.3002 75.1101 67.3002C73.5701 67.3002 72.3301 66.0502 72.3301 64.5202C72.3301 62.9902 73.5801 61.7402 75.1101 61.7402C76.6401 61.7402 77.8901 62.9802 77.8901 64.5202Z" fill="white"/>
<path d="M73.8002 68.5998C73.8002 70.1298 72.5602 71.3798 71.0202 71.3798C69.4802 71.3798 68.2402 70.1398 68.2402 68.5998C68.2402 67.0598 69.4902 65.8198 71.0202 65.8198C72.5502 65.8198 73.8002 67.0598 73.8002 68.5998Z" fill="white"/>
<path d="M69.08 71.9201C69.08 73.4501 67.83 74.7001 66.3 74.7001C64.77 74.7001 63.52 73.4501 63.52 71.9201C63.52 70.3901 64.76 69.1401 66.3 69.1401C67.84 69.1401 69.08 70.3801 69.08 71.9201Z" fill="white"/>
<path d="M63.8398 74.3601C63.8398 75.9001 62.5898 77.1401 61.0598 77.1401C59.5298 77.1401 58.2798 75.9001 58.2798 74.3601C58.2798 72.8201 59.5198 71.5801 61.0598 71.5801C62.5998 71.5801 63.8398 72.8201 63.8398 74.3601Z" fill="white"/>
<path d="M46.7602 10.6198C46.7602 12.1598 45.5202 13.3998 43.9802 13.3998C42.4402 13.3998 41.2002 12.1598 41.2002 10.6198C41.2002 9.07984 42.4402 7.83984 43.9802 7.83984C45.5202 7.83984 46.7602 9.07984 46.7602 10.6198Z" fill="white"/>
<path d="M21.1298 69.2501C21.1298 70.5801 20.0498 71.6501 18.7198 71.6501C17.3898 71.6501 16.3198 70.5801 16.3198 69.2501C16.3198 67.9201 17.3898 66.8501 18.7198 66.8501C20.0498 66.8501 21.1298 67.9301 21.1298 69.2501Z" fill="white"/>
<path d="M72.3801 78.2901C72.3801 79.6201 71.3101 80.6901 69.9801 80.6901C68.6501 80.6901 67.5801 79.6101 67.5801 78.2901C67.5801 76.9701 68.6601 75.8901 69.9801 75.8901C71.3001 75.8901 72.3801 76.9601 72.3801 78.2901Z" fill="white"/>
<path d="M78.1601 74.2398C78.1601 75.5698 77.0801 76.6398 75.7501 76.6398C74.4201 76.6398 73.3501 75.5598 73.3501 74.2398C73.3501 72.9198 74.4201 71.8398 75.7501 71.8398C77.0801 71.8398 78.1601 72.9198 78.1601 74.2398Z" fill="white"/>
<path d="M83.1498 69.2501C83.1498 70.5801 82.0698 71.6501 80.7398 71.6501C79.4098 71.6501 78.3398 70.5701 78.3398 69.2501C78.3398 67.9301 79.4098 66.8501 80.7398 66.8501C82.0698 66.8501 83.1498 67.9201 83.1498 69.2501Z" fill="white"/>
<path d="M87.1999 63.4698C87.1999 64.7998 86.1199 65.8698 84.7999 65.8698C83.4799 65.8698 82.3999 64.7898 82.3999 63.4698C82.3999 62.1498 83.4799 61.0698 84.7999 61.0698C86.1199 61.0698 87.1999 62.1398 87.1999 63.4698Z" fill="white"/>
<path d="M90.1801 57.0699C90.1801 58.3999 89.1101 59.4699 87.7801 59.4699C86.4501 59.4699 85.3701 58.3999 85.3701 57.0699C85.3701 55.7399 86.4501 54.6699 87.7801 54.6699C89.1101 54.6699 90.1801 55.7399 90.1801 57.0699Z" fill="white"/>
<path d="M92.0002 50.2599C92.0002 51.5899 90.9202 52.6599 89.6002 52.6599C88.2802 52.6599 87.2002 51.5799 87.2002 50.2599C87.2002 48.9399 88.2802 47.8599 89.6002 47.8599C90.9202 47.8599 92.0002 48.9299 92.0002 50.2599Z" fill="white"/>
<path d="M92.6201 43.2398C92.6201 44.5698 91.5401 45.6398 90.2201 45.6398C88.9001 45.6398 87.8101 44.5598 87.8101 43.2398C87.8101 41.9198 88.8901 40.8398 90.2201 40.8398C91.5501 40.8398 92.6201 41.9198 92.6201 43.2398Z" fill="white"/>
<path d="M92.0002 36.2101C92.0002 37.5401 90.9202 38.6101 89.6002 38.6101C88.2802 38.6101 87.2002 37.5301 87.2002 36.2101C87.2002 34.8901 88.2802 33.8101 89.6002 33.8101C90.9202 33.8101 92.0002 34.8801 92.0002 36.2101Z" fill="white"/>
<path d="M90.1799 29.3902C90.1799 30.7202 89.0999 31.7902 87.7799 31.7902C86.4599 31.7902 85.3799 30.7202 85.3799 29.3902C85.3799 28.0602 86.4499 26.9902 87.7799 26.9902C89.1099 26.9902 90.1799 28.0702 90.1799 29.3902Z" fill="white"/>
<path d="M87.2001 23.0001C87.2001 24.3301 86.1301 25.4001 84.8001 25.4001C83.4701 25.4001 82.3901 24.3201 82.3901 23.0001C82.3901 21.6801 83.4701 20.6001 84.8001 20.6001C86.1301 20.6001 87.2001 21.6801 87.2001 23.0001Z" fill="white"/>
<path d="M83.1501 17.2198C83.1501 18.5498 82.0701 19.6198 80.7501 19.6198C79.4301 19.6198 78.3501 18.5398 78.3501 17.2198C78.3501 15.8998 79.4201 14.8198 80.7501 14.8198C82.0801 14.8198 83.1501 15.8998 83.1501 17.2198Z" fill="white"/>
<path d="M78.1601 12.2301C78.1601 13.5601 77.0801 14.6301 75.7501 14.6301C74.4201 14.6301 73.3501 13.5501 73.3501 12.2301C73.3501 10.9101 74.4201 9.83008 75.7501 9.83008C77.0801 9.83008 78.1601 10.9101 78.1601 12.2301Z" fill="white"/>
<path d="M72.3801 8.17979C72.3801 9.50979 71.3101 10.5798 69.9801 10.5798C68.6501 10.5798 67.5801 9.50979 67.5801 8.17979C67.5801 6.84979 68.6601 5.77979 69.9801 5.77979C71.3001 5.77979 72.3801 6.84979 72.3801 8.17979Z" fill="white"/>
<path d="M17.0798 63.4698C17.0798 64.7998 15.9998 65.8698 14.6798 65.8698C13.3598 65.8698 12.2798 64.7898 12.2798 63.4698C12.2798 62.1498 13.3598 61.0698 14.6798 61.0698C15.9998 61.0698 17.0798 62.1398 17.0798 63.4698Z" fill="white"/>
<path d="M14.1 57.0699C14.1 58.3999 13.02 59.4699 11.69 59.4699C10.36 59.4699 9.29004 58.3899 9.29004 57.0699C9.29004 55.7499 10.36 54.6699 11.69 54.6699C13.02 54.6699 14.1 55.7499 14.1 57.0699Z" fill="white"/>
<path d="M12.2702 50.2599C12.2702 51.5899 11.2002 52.6599 9.87021 52.6599C8.54021 52.6599 7.47021 51.5799 7.47021 50.2599C7.47021 48.9399 8.54021 47.8599 9.87021 47.8599C11.2002 47.8599 12.2702 48.9399 12.2702 50.2599Z" fill="white"/>
<path d="M11.6501 43.2398C11.6501 44.5698 10.5801 45.6398 9.2501 45.6398C7.9201 45.6398 6.8501 44.5598 6.8501 43.2398C6.8501 41.9198 7.9301 40.8398 9.2501 40.8398C10.5701 40.8398 11.6501 41.9198 11.6501 43.2398Z" fill="white"/>
<path d="M12.2702 36.2101C12.2702 37.5401 11.2002 38.6101 9.87021 38.6101C8.54021 38.6101 7.47021 37.5301 7.47021 36.2101C7.47021 34.8901 8.54021 33.8101 9.87021 33.8101C11.2002 33.8101 12.2702 34.8801 12.2702 36.2101Z" fill="white"/>
<path d="M14.1 29.3902C14.1 30.7102 13.02 31.7902 11.69 31.7902C10.36 31.7902 9.29004 30.7102 9.29004 29.3902C9.29004 28.0702 10.36 26.9902 11.69 26.9902C13.02 26.9902 14.1 28.0702 14.1 29.3902Z" fill="white"/>
<path d="M84.6701 94.9898C84.6701 95.7698 84.0501 96.3898 83.2701 96.3898C82.4901 96.3898 81.8701 95.7598 81.8701 94.9898C81.8701 94.2198 82.5001 93.5898 83.2701 93.5898C84.0401 93.5898 84.6701 94.2098 84.6701 94.9898Z" fill="white"/>
<path d="M79.09 94.9898C79.09 95.7698 78.47 96.3898 77.69 96.3898C76.91 96.3898 76.29 95.7598 76.29 94.9898C76.29 94.2198 76.92 93.5898 77.69 93.5898C78.46 93.5898 79.09 94.2098 79.09 94.9898Z" fill="white"/>
<path d="M82.57 99.6002C82.57 100.38 81.94 101 81.17 101C80.4 101 79.77 100.38 79.77 99.6002C79.77 98.8202 80.4 98.2002 81.17 98.2002C81.94 98.2002 82.57 98.8202 82.57 99.6002Z" fill="white"/>
<path d="M85.8898 84.7901C85.8898 85.5601 85.2698 86.1901 84.4898 86.1901C83.7098 86.1901 83.0898 85.5701 83.0898 84.7901C83.0898 84.0101 83.7198 83.3901 84.4898 83.3901C85.2598 83.3901 85.8898 84.0101 85.8898 84.7901Z" fill="white"/>
<path d="M92.6901 77.9801C92.6901 78.7601 92.0601 79.3801 91.2901 79.3801C90.5201 79.3801 89.8901 78.7501 89.8901 77.9801C89.8901 77.2101 90.5201 76.5801 91.2901 76.5801C92.0601 76.5801 92.6901 77.2001 92.6901 77.9801Z" fill="white"/>
<path d="M98.2102 70.1002C98.2102 70.8802 97.5902 71.5002 96.8102 71.5002C96.0302 71.5002 95.4102 70.8702 95.4102 70.1002C95.4102 69.3302 96.0402 68.7002 96.8102 68.7002C97.5802 68.7002 98.2102 69.3202 98.2102 70.1002Z" fill="white"/>
<path d="M101.91 61.7398C101.91 62.5198 101.29 63.1398 100.51 63.1398C99.7299 63.1398 99.1099 62.5098 99.1099 61.7398C99.1099 60.9698 99.7399 60.3398 100.51 60.3398C101.28 60.3398 101.91 60.9598 101.91 61.7398Z" fill="white"/>
<path d="M14.9802 73.9799C14.9802 75.0299 14.1302 75.8699 13.0902 75.8699C12.0502 75.8699 11.2002 75.0199 11.2002 73.9799C11.2002 72.9399 12.0502 72.0898 13.0902 72.0898C14.1302 72.0898 14.9802 72.9399 14.9802 73.9799Z" fill="white"/>
<path d="M10.1902 67.1498C10.1902 68.1998 9.34016 69.0398 8.30016 69.0398C7.26016 69.0398 6.41016 68.1898 6.41016 67.1498C6.41016 66.1098 7.26016 65.2598 8.30016 65.2598C9.34016 65.2598 10.1902 66.1098 10.1902 67.1498Z" fill="white"/>
<path d="M6.67014 59.5902C6.67014 60.6402 5.82014 61.4802 4.78014 61.4802C3.74014 61.4802 2.89014 60.6302 2.89014 59.5902C2.89014 58.5502 3.73014 57.7002 4.78014 57.7002C5.83014 57.7002 6.67014 58.5502 6.67014 59.5902Z" fill="white"/>
<path d="M4.50998 51.5399C4.50998 52.5799 3.66998 53.4299 2.61998 53.4299C1.56998 53.4299 0.72998 52.5799 0.72998 51.5399C0.72998 50.4999 1.57998 49.6499 2.61998 49.6499C3.65998 49.6499 4.50998 50.4999 4.50998 51.5399Z" fill="white"/>
<path d="M3.78 43.2401C3.78 44.2801 2.93 45.1301 1.89 45.1301C0.85 45.1301 0 44.2801 0 43.2401C0 42.2001 0.85 41.3501 1.89 41.3501C2.93 41.3501 3.78 42.2001 3.78 43.2401Z" fill="white"/>
<path d="M4.50998 34.93C4.50998 35.97 3.66998 36.82 2.61998 36.82C1.56998 36.82 0.72998 35.97 0.72998 34.93C0.72998 33.89 1.57998 33.04 2.61998 33.04C3.65998 33.04 4.50998 33.89 4.50998 34.93Z" fill="white"/>
<path d="M82.3699 6.66002C82.3699 7.71002 81.5199 8.55002 80.4799 8.55002C79.4399 8.55002 78.5898 7.70002 78.5898 6.66002C78.5898 5.62002 79.4399 4.77002 80.4799 4.77002C81.5199 4.77002 82.3699 5.62002 82.3699 6.66002Z" fill="white"/>
<path d="M99.4301 43.2401C99.4301 44.2801 98.5801 45.1301 97.5401 45.1301C96.5001 45.1301 95.6401 44.2801 95.6401 43.2401C95.6401 42.2001 96.4901 41.3501 97.5401 41.3501C98.5901 41.3501 99.4301 42.2001 99.4301 43.2401Z" fill="white"/>
<path d="M98.74 51.5399C98.74 52.5799 97.89 53.4299 96.85 53.4299C95.81 53.4299 94.96 52.5799 94.96 51.5399C94.96 50.4999 95.81 49.6499 96.85 49.6499C97.89 49.6499 98.74 50.4999 98.74 51.5399Z" fill="white"/>
<path d="M96.5798 59.5902C96.5798 60.6402 95.7298 61.4802 94.6898 61.4802C93.6498 61.4802 92.7998 60.6302 92.7998 59.5902C92.7998 58.5502 93.6498 57.7002 94.6898 57.7002C95.7298 57.7002 96.5798 58.5502 96.5798 59.5902Z" fill="white"/>
<path d="M93.0598 67.1498C93.0598 68.1898 92.2098 69.0398 91.1698 69.0398C90.1298 69.0398 89.2798 68.1898 89.2798 67.1498C89.2798 66.1098 90.1298 65.2598 91.1698 65.2598C92.2098 65.2598 93.0598 66.1098 93.0598 67.1498Z" fill="white"/>
<path d="M88.28 73.9799C88.28 75.0299 87.43 75.8699 86.39 75.8699C85.35 75.8699 84.5 75.0199 84.5 73.9799C84.5 72.9399 85.35 72.0898 86.39 72.0898C87.43 72.0898 88.28 72.9399 88.28 73.9799Z" fill="white"/>
<path d="M82.3801 79.88C82.3801 80.92 81.5301 81.77 80.4901 81.77C79.4501 81.77 78.6001 80.92 78.6001 79.88C78.6001 78.84 79.4501 77.98 80.4901 77.98C81.5301 77.98 82.3801 78.83 82.3801 79.88Z" fill="white"/>
<path d="M75.55 84.66C75.55 85.7 74.7 86.55 73.66 86.55C72.62 86.55 71.77 85.7 71.77 84.66C71.77 83.62 72.62 82.77 73.66 82.77C74.7 82.77 75.55 83.62 75.55 84.66Z" fill="white"/>
<path d="M75.5998 1.89C75.5998 2.93 74.7498 3.78 73.7098 3.78C72.6698 3.78 71.8198 2.93 71.8198 1.89C71.8198 0.85 72.6698 0 73.7098 0C74.7498 0 75.5998 0.85 75.5998 1.89Z" fill="white"/>
<path d="M61.0701 43.1002C61.0701 49.2402 56.1001 54.2102 49.9601 54.2102C43.8201 54.2102 38.8501 49.2402 38.8501 43.1002C38.8501 36.9602 43.8301 31.9902 49.9601 31.9902C56.0901 31.9902 61.0701 36.9702 61.0701 43.1002Z" fill="white"/>
<path d="M32.48 32.7502C32.48 34.4302 33.84 35.7902 35.52 35.7902C37.2 35.7902 38.57 34.4302 38.57 32.7502C38.57 31.0702 37.21 29.7002 35.52 29.7002C33.83 29.7002 32.48 31.0702 32.48 32.7502Z" fill="white"/>
<path d="M70.1501 43.2402C70.1501 41.7202 69.0201 40.5102 67.5601 40.2902C68.4701 39.7602 69.1101 38.8202 69.1101 37.7002C69.1101 36.0902 67.8401 34.8002 66.2501 34.6902C66.6901 34.1602 66.9901 33.5102 66.9901 32.7602C66.9901 31.0802 65.6301 29.7102 63.9501 29.7102C63.5701 29.7102 63.2201 29.8002 62.8901 29.9302C62.9401 29.7002 63.0301 29.4802 63.0301 29.2302C63.0301 27.5502 61.6701 26.1902 59.9901 26.1902C59.2001 26.1902 58.4801 26.5102 57.9401 27.0102C57.9601 26.9002 58.0101 26.8002 58.0101 26.6802C58.0101 25.0002 56.6501 23.6302 54.9601 23.6302C53.9901 23.6302 53.1601 24.1202 52.6001 24.8302C52.2001 23.6102 51.1001 22.7002 49.7401 22.7002C48.3801 22.7002 47.2701 23.6002 46.8801 24.8302C46.3201 24.1202 45.5001 23.6302 44.5201 23.6302C42.8401 23.6302 41.4801 24.9902 41.4801 26.6802C41.4801 26.8002 41.5301 26.9002 41.5501 27.0102C41.0101 26.5102 40.3001 26.1902 39.5001 26.1902C37.8201 26.1902 36.4601 27.5502 36.4601 29.2302C36.4601 30.9102 37.8201 32.2702 39.5001 32.2702C41.1801 32.2702 42.5401 30.9102 42.5401 29.2302C42.5401 29.1102 42.4901 29.0202 42.4701 28.9002C43.0101 29.4002 43.7201 29.7202 44.5201 29.7202C45.8801 29.7202 46.9901 28.8202 47.3801 27.5902C47.9401 28.3002 48.7601 28.7902 49.7401 28.7902C50.7201 28.7902 51.5401 28.3002 52.1001 27.6002C52.4901 28.8202 53.6001 29.7202 54.9601 29.7202C55.7601 29.7202 56.4701 29.4002 57.0101 28.9002C57.0001 29.0202 56.9401 29.1102 56.9401 29.2302C56.9401 30.9102 58.3001 32.2702 59.9901 32.2702C60.3701 32.2702 60.7201 32.1802 61.0501 32.0602C60.9901 32.2902 60.9101 32.5102 60.9101 32.7602C60.9101 34.3702 62.1801 35.6602 63.7701 35.7702C63.3201 36.3002 63.0301 36.9502 63.0301 37.7002C63.0301 39.2202 64.1601 40.4302 65.6201 40.6502C64.7101 41.1802 64.0701 42.1202 64.0701 43.2502C64.0701 44.3802 64.7101 45.3202 65.6201 45.8402C64.1601 46.0702 63.0301 47.2702 63.0301 48.7902C63.0301 49.5302 63.3301 50.1902 63.7701 50.7202C62.1801 50.8202 60.9101 52.1102 60.9101 53.7202C60.9101 53.9702 60.9901 54.1902 61.0501 54.4202C60.7201 54.3002 60.3601 54.2102 59.9901 54.2102C58.3101 54.2102 56.9401 55.5702 56.9401 57.2602C56.9401 57.3802 57.0001 57.4802 57.0101 57.5902C56.4701 57.0902 55.7601 56.7702 54.9601 56.7702C53.6101 56.7702 52.5001 57.6702 52.1001 58.8902C51.5401 58.1802 50.7101 57.6902 49.7401 57.6902C48.7701 57.6902 47.9401 58.1802 47.3801 58.8802C46.9901 57.6602 45.8801 56.7602 44.5201 56.7602C43.7201 56.7602 43.0201 57.0802 42.4701 57.5802C42.4801 57.4602 42.5401 57.3702 42.5401 57.2502C42.5401 55.5702 41.1801 54.2002 39.5001 54.2002C39.1201 54.2002 38.7701 54.2902 38.4401 54.4102C38.4901 54.1802 38.5801 53.9602 38.5801 53.7102C38.5801 52.1002 37.3101 50.8102 35.7201 50.7102C36.1601 50.1802 36.4601 49.5302 36.4601 48.7802C36.4601 47.2602 35.3201 46.0502 33.8701 45.8302C34.7801 45.3002 35.4101 44.3602 35.4101 43.2402C35.4101 42.1202 34.7701 41.1702 33.8701 40.6402C35.3201 40.4102 36.4601 39.2102 36.4601 37.6902C36.4601 36.0102 35.1001 34.6502 33.4201 34.6502C31.7401 34.6502 30.3801 36.0102 30.3801 37.6902C30.3801 38.8202 31.0201 39.7602 31.9201 40.2802C30.4601 40.5102 29.3301 41.7102 29.3301 43.2302C29.3301 44.7502 30.4601 45.9502 31.9201 46.1802C31.0101 46.7102 30.3801 47.6502 30.3801 48.7702C30.3801 50.3802 31.6501 51.6702 33.2301 51.7802C32.7901 52.3102 32.4901 52.9602 32.4901 53.7002C32.4901 55.3802 33.8501 56.7502 35.5401 56.7502C35.9201 56.7502 36.2701 56.6602 36.6001 56.5402C36.5401 56.7702 36.4601 56.9902 36.4601 57.2402C36.4601 58.9202 37.8201 60.2902 39.5001 60.2902C40.3001 60.2902 41.0001 59.9702 41.5501 59.4702C41.5401 59.5802 41.4801 59.6802 41.4801 59.8002C41.4801 61.4802 42.8401 62.8402 44.5201 62.8402C45.4901 62.8402 46.3201 62.3502 46.8801 61.6502C47.2701 62.8702 48.3801 63.7802 49.7401 63.7802C51.1001 63.7802 52.2001 62.8702 52.6001 61.6502C53.1601 62.3602 53.9901 62.8402 54.9601 62.8402C56.6401 62.8402 58.0101 61.4802 58.0101 59.8002C58.0101 59.6802 57.9601 59.5802 57.9401 59.4702C58.4801 59.9702 59.1901 60.2902 59.9901 60.2902C61.6701 60.2902 63.0301 58.9202 63.0301 57.2402C63.0301 56.9902 62.9401 56.7702 62.8901 56.5402C63.2201 56.6602 63.5701 56.7502 63.9501 56.7502C65.6301 56.7502 66.9901 55.3902 66.9901 53.7002C66.9901 52.9602 66.6901 52.3002 66.2501 51.7802C67.8401 51.6802 69.1101 50.3902 69.1101 48.7702C69.1101 47.6402 68.4701 46.7002 67.5601 46.1802C69.0201 45.9502 70.1501 44.7502 70.1501 43.2302" fill="white"/>
</g>
<defs>
<clipPath id="clip0_211_1514">
<rect width="101.91" height="101" fill="white"/>
</clipPath>
</defs>
</svg>
